<?xml version="1.0"?>
<svg xmlns="http://www.w3.org/2000/svg" width="222.422" height="48.685" viewBox="0 0 222.422 48.685"><g transform="translate(-163.056 -131.27)"><g transform="translate(163.056 141.617)"><path d="M 170.712,154.172 c .945 -2.96,1.008 -3.464 -.535 -3.715 l -.724 -.126 a .5.5,0,0,1,.189 -.787 c 1.008.062,2.078.094,3.4.094,1.355,0,2.33 -.032,3.747 -.094 a .478.478,0,0,1 -.094.787 l -.63.126 c -1.858.283 -1.984.6 -2.991,3.715 l -1.323,4.157 c -.22.693 -.189.882.567.882 a 2.945,2.945,0,0,0,1.354 -.315,22.663,22.663,0,0,0,3.307 -2.74 l 3.149 -2.991 c 1.7 -1.638,2.047 -2.078,2.047 -2.33,0 -.189 -.347 -.316 -.756 -.378 l -.6 -.126 a .509.509,0,0,1,.127 -.787 c 1.039.062,2.11.094,3.463.094,1.543,0,2.487 -.064,3.4 -.094 a .471.471,0,0,1 -.031.787 l -.661.126 a 9.635,9.635,0,0,0 -2.11.567 c -.819.346 -2.424,1.385 -5.574,4.219 l -4.03,3.685 c -.536.472 -.6.5 -.252,1.2 l 3.463,6.928 c .85,1.732,1.354,2.393,2.865,2.582 l .819.094 a .526.526,0,0,1 -.1.787 c -1.008 -.063 -2.361 -.094 -3.338 -.094 -1.2,0 -2.361.031 -3.558.094 -.126 -.252 -.157 -.661.094 -.787 l .819 -.094 c 1.071 -.126.945 -.441.315 -1.7 l -3.307 -6.487 c -.661 -1.291 -.976 -1.417 -1.259 -1.417 -.6,0 -.85.283 -1.039.882 l -1.543,4.975 c -.913,2.928 -1.008,3.558.6,3.747 l .882.094 a .584.584,0,0,1 -.126.787 c -1.448 -.063 -2.55 -.094 -3.9 -.094 -1.292,0 -2.331.031 -3.59.094 a .526.526,0,0,1 -.031 -.787 l .976 -.094 c 1.511 -.157,1.827 -.535,2.834 -3.747 Z" transform="translate(-163.056 -147.904)" fill="#fff"/><path d="M 199.164,168.586 l .094.064 c 2.236 -3.4,5.353 -6.865,7.715 -6.865 a 1.548,1.548,0,0,1,1.763,1.7,8.641,8.641,0,0,1 -.5,2.2 c -.567,1.574 -2.834,6.707 -2.928,6.959 -.126.315 -.157.6.063.6 a 6.507,6.507,0,0,0,2.96 -2.141 c .441 -.063.5.189.5.441 -1.2,2.015 -3.684,3.526 -5.416,3.526 a .937.937,0,0,1 -.755 -.787 c 0 -.283.094 -.5.755 -2.078.662 -1.543,1.827 -4.629,2.551 -6.2 a 7.4,7.4,0,0,0,.661 -2.3 c 0 -.378 -.031 -.756 -.5 -.756 -.756,0 -2.614,1.574 -4.346,3.747 a 52.1,52.1,0,0,0 -4.817,8 c -.157.283 -.283.378 -.567.378 -.347,0 -1.2 -.094 -.913 -.819.157 -.409,3.495 -9.478,3.652 -9.919.157 -.409.157 -.724 -.094 -.724 a 5.473,5.473,0,0,0 -2.865,1.574.393.393,0,0,1 -.378 -.472 c 1.2 -1.638,3.117 -2.929,4.691 -2.929.756,0,1.1.567.819,1.291 Z" transform="translate(-174.192 -152.115)" fill="#fff"/><path d="M 223.13,160.435 c .158 -.346.158 -.6 -.062 -.6 a 7.273,7.273,0,0,0 -2.614,1.669.446.446,0,0,1 -.409 -.535 c 1.732 -1.984,4.157 -3.149,5.2 -3.149.22,0,.378.189.5.316.189.189.189.472 -.189,1.385 l -3.747,8.943 c -.126.315 -.157.693.094.693 a 7.581,7.581,0,0,0,3.275 -2.33.5.5,0,0,1,.472.535 c -.472.913 -3.715,3.747 -5.889,3.747 a .7.7,0,0,1 -.5 -.283.747.747,0,0,1 -.126 -.85 Z  m 4.031 -8.975 a 1.885,1.885,0,0,1 -1.669,1.984,1.1,1.1,0,0,1 -1.133 -1.2 c 0 -.693.472 -1.984,1.7 -1.984 A 1.068,1.068,0,0,1,227.161,151.46 Z" transform="translate(-182.321 -148.152)" fill="#fff"/><path d="M 241.148,147.236 c -.63,1.763 -1.637,4.629 -2.267,6.424 l -3.243,9.415.063.063 a 19.973,19.973,0,0,1,4.975 -5.2,5.4,5.4,0,0,1,2.992 -1.229 c 1.385,0,1.889,1.008,1.889,2.11,0,2.173 -1.354,5.353 -2.456,7.368 a 11.937,11.937,0,0,1 -2.047,2.582,3.461,3.461,0,0,1 -2.3,1.228 c -1.039,0 -1.165 -.661 -1.165 -.913 a 1,1,0,0,1,.85 -1.008.751.751,0,0,1,.441.189,1.817,1.817,0,0,0,.819.409 c .472,0,.787 -.472,1.259 -1.574.85 -2.047,2.268 -6.392,2.268 -8.124,0 -.6 -.22 -.945 -.662 -.945 a 3.42,3.42,0,0,0 -1.7.85,19.86,19.86,0,0,0 -4,4.188,51.016,51.016,0,0,0 -3.81,6.55.576.576,0,0,1 -.567.378 c -.346,0 -1.2 -.094 -.913 -.819 l 5.983 -17.7 c .693 -2.078.85 -2.519.346 -2.866 l -.661 -.441 a .306.306,0,0,1,.094 -.409,17.246,17.246,0,0,1,3.684 -.724 Z" transform="translate(-186.61 -147.045)" fill="#fff"/><path d="M 266.057,165.752 a 11.967,11.967,0,0,1 -3.337,7.148,6.038,6.038,0,0,1 -4.5,2.173 c -2.015,0 -3.337 -1.48 -3.149 -4.188 a 11.82,11.82,0,0,1,3.432 -7.053,6.132,6.132,0,0,1,4.346 -2.047 C 265.081,161.784,266.183,163.453,266.057,165.752 Z  m -5.731 -1.511 a 18.2,18.2,0,0,0 -3.149,7.872 c -.063,1.1.378,2.015,1.291,2.015.693,0,1.48 -.283,2.488 -1.637 a 19.454,19.454,0,0,0,2.928 -7.683 c .031 -.976 -.157 -2.078 -1.259 -2.078 C 262,162.729,261.239,163.013,260.326,164.241 Z" transform="translate(-194.706 -152.115)" fill="#fff"/><path d="M 278.28,164.524 c .189 -.6.189 -.913 -.22 -.913 -.6,0 -1.952,1.133 -2.928,2.2 a .5.5,0,0,1 -.472 -.535 c 1.008 -1.417,3.117 -3.5,4.975 -3.5.725,0,1.449.914.976,2.079 l -2.708,7.022 a 5.2,5.2,0,0,0 -.315,1.48 c 0,.535.252,1.133.913,1.133.724,0,2.015 -.724,3.432 -2.33 a 10.271,10.271,0,0,0,2.708 -6.014,7.645,7.645,0,0,0 -.283 -2.236,1.2,1.2,0,0,1,1.165 -1.134 c 1.008,0,1.228,1.166,1.228,1.953,0,2.3 -2.361,6.77 -5.069,9.037 -2.394,1.984 -4.157,2.3 -4.912,2.3 -.819,0 -1.448 -.945 -1.448 -1.889 a 9.921,9.921,0,0,1,.787 -3.023 Z" transform="translate(-201.451 -152.115)" fill="#fff"/><path d="M 298.715,168.586 l .094.064 c 2.236 -3.4,5.353 -6.865,7.715 -6.865 a 1.548,1.548,0,0,1,1.763,1.7,8.643,8.643,0,0,1 -.5,2.2 c -.567,1.574 -2.834,6.707 -2.928,6.959 -.126.315 -.157.6.063.6 a 6.507,6.507,0,0,0,2.96 -2.141 c .441 -.063.5.189.5.441 -1.2,2.015 -3.684,3.526 -5.416,3.526 a .937.937,0,0,1 -.755 -.787 c 0 -.283.094 -.5.755 -2.078.662 -1.543,1.826 -4.629,2.551 -6.2 a 7.4,7.4,0,0,0,.661 -2.3 c 0 -.378 -.031 -.756 -.5 -.756 -.756,0 -2.613,1.574 -4.346,3.747 a 52.093,52.093,0,0,0 -4.818,8 c -.157.283 -.283.378 -.566.378 -.347,0 -1.2 -.094 -.914 -.819.157 -.409,3.5 -9.478,3.653 -9.919.157 -.409.157 -.724 -.094 -.724 a 5.473,5.473,0,0,0 -2.865,1.574.393.393,0,0,1 -.378 -.472 c 1.2 -1.638,3.118 -2.929,4.692 -2.929.756,0,1.1.567.819,1.291 Z" transform="translate(-208.441 -152.115)" fill="#fff"/><path d="M 329.216,160.633 a 1.317,1.317,0,0,1,1.543.472 c -.473,1.166 -3.212,8.125 -4.22,10.99 -.189.535 -.031.724.22.724.536,0,1.448 -.535,3.244 -2.11 a .423.423,0,0,1,.44.409 c -1.322,1.763 -3.558,3.526 -5.29,3.526 a .868.868,0,0,1 -.914 -.85,4.066,4.066,0,0,1,.316 -1.228 l 1.039 -2.834 -.094 -.032 c -2.236,2.771 -5.447,4.944 -6.928,4.944 a 1.584,1.584,0,0,1 -1.386 -1.763,16.969,16.969,0,0,1,6.928 -10.171,5.513,5.513,0,0,1,2.834 -.913,1.559,1.559,0,0,1,.756.189,1.827,1.827,0,0,1,.63.661 Z  m -5.479,3.59 c -2.015,1.795 -3.936,5.92 -3.936,8.155,0,.378.189.6.473.6.314,0,1.259 -.409,3.054 -2.047 a 15.23,15.23,0,0,0,4.219 -6.8,1.655,1.655,0,0,0 -1.574 -1.133 C 325.217,162.995,324.713,163.341,323.737,164.223 Z" transform="translate(-216.084 -151.688)" fill="#fff"/><path d="M 356.49,165.319 c -1.1,3.464 -1.29,4.125,2.551,4.125,3.622,0,4.975 -.157,6.9 -3.275.315 -.094.63 -.031.693.189 a 24.2,24.2,0,0,1 -2.015,4.156 c -1.165 -.031 -2.424 -.063 -3.685 -.063 -1.259 -.031 -2.487 -.031 -3.589 -.031 h -3.652 c -1.292,0 -2.331.031 -3.338.094 a .526.526,0,0,1 -.031 -.787 l .756 -.094 c 1.511 -.22,1.826 -.535,2.834 -3.747 l 3.684 -11.714 c .945 -2.96,1.008 -3.464 -.724 -3.715 l -.756 -.126 a .5.5,0,0,1,.188 -.787 c 1.229.031,2.3.094,3.59.094,1.354,0,2.331 -.064,3.968 -.094 a .5.5,0,0,1,0,.787 l -.976.126 c -1.8.22 -1.953.6 -2.928,3.715 Z" transform="translate(-227.427 -147.904)" fill="#fff"/><path d="M 381.625,160.435 c .157 -.346.157 -.6 -.063 -.6 a 7.268,7.268,0,0,0 -2.613,1.669.446.446,0,0,1 -.409 -.535 c 1.731 -1.984,4.155 -3.149,5.195 -3.149.221,0,.379.189.5.316.189.189.189.472 -.189,1.385 l -3.747,8.943 c -.125.315 -.157.693.1.693 a 7.584,7.584,0,0,0,3.275 -2.33.5.5,0,0,1,.472.535 c -.472.913 -3.715,3.747 -5.888,3.747 a .7.7,0,0,1 -.5 -.283.747.747,0,0,1 -.126 -.85 Z  m 4.03 -8.975 a 1.885,1.885,0,0,1 -1.669,1.984,1.1,1.1,0,0,1 -1.133 -1.2 c 0 -.693.472 -1.984,1.7 -1.984 A 1.068,1.068,0,0,1,385.655,151.46 Z" transform="translate(-236.85 -148.152)" fill="#fff"/><path d="M 394.976,162.192 h .063 c 2.2 -3.337,4.314 -5.479,6.675 -5.479 a 2.548,2.548,0,0,1,2.708,2.834 c 0,2.173 -1.511,4.912 -4.062,7.4 -2.582,2.487 -4.912,3.054 -6.014,3.054 -1.7,0 -2.52 -1.1 -2.52 -2.9 a 21.129,21.129,0,0,1,1.606 -6.2 l 3.653 -9.7 c .661 -1.764.756 -2.33.315 -2.614 l -.724 -.5 a .4.4,0,0,1,.094 -.441,12.538,12.538,0,0,1,3.778 -.6 l .126.189 c -.661,1.763 -1.133,2.96 -1.606,4.188 Z  m 1.921 -1.1 a 11.114,11.114,0,0,0 -2.96,6.3 c 0,1.228.567,1.637,1.1,1.637.472,0,1.669 -.6,3.023 -2.11,1.953 -2.2,4.282 -6.2,4.282 -8 a 1.015,1.015,0,0,0 -1.1 -1.133 C 400.392,157.784,398.849,158.855,396.9,161.09 Z" transform="translate(-241.763 -147.044)" fill="#fff"/><path d="M 423.449,163.674 c 0,2.393 -3.117,3.967 -7.652,5.227 a 7.927,7.927,0,0,0 -.441,2.8,1.613,1.613,0,0,0,1.511,1.795 c 1.134,0,1.921 -.63,3.306 -1.826 a .422.422,0,0,1,.409.535 c -1.921,2.361 -3.715,2.865 -5.038,2.865 -1.889,0 -2.551 -1.763 -2.551 -3.306 a 11.836,11.836,0,0,1,4.692 -8.47,6.048,6.048,0,0,1,3.778 -1.512 A 1.975,1.975,0,0,1,423.449,163.674 Z  m -5.007.6 a 12.53,12.53,0,0,0 -2.33,3.684,9.155,9.155,0,0,0,4.22 -2.33,3.554,3.554,0,0,0,1.228 -2.141.672.672,0,0,0 -.725 -.724 C 420.394,162.761,419.575,163.044,418.442,164.272 Z" transform="translate(-249.045 -152.115)" fill="#fff"/><path d="M 435.189,164.776 l -1.355,3.968 h .158 a 47.226,47.226,0,0,1,3.306 -5.322 c .724 -.945,1.511 -1.638,2.3 -1.638,1.1,0,1.259,1.071,1.259,1.543 a 3.912,3.912,0,0,1 -.661,1.889 c -.378.472 -.882.5 -1.008 -.157 -.158 -.819 -.347 -1.228 -.662 -1.228 -.283,0 -.63.315 -1.1.945 -1.921,2.456 -3.684,6.3 -5.353,9.919 a .564.564,0,0,1 -.535.378 c -.347,0 -1.26 -.126 -1.039 -.819.409 -1.259,2.392 -6.833,3.243 -9.919.094 -.346.031 -.661 -.253 -.661 -.819,0 -1.669.882 -2.236,1.637 -.315.063 -.535 -.126 -.5 -.5,1.008 -1.7,2.2 -3.023,3.715 -3.023 C 436.039,161.784,435.472,163.926,435.189,164.776 Z" transform="translate(-255.056 -152.115)" fill="#fff"/><path d="M 455.464,163.674 c 0,2.393 -3.117,3.967 -7.652,5.227 a 7.926,7.926,0,0,0 -.441,2.8,1.614,1.614,0,0,0,1.512,1.795 c 1.133,0,1.921 -.63,3.306 -1.826 a .422.422,0,0,1,.409.535 c -1.921,2.361 -3.715,2.865 -5.038,2.865 -1.889,0 -2.55 -1.763 -2.55 -3.306 a 11.836,11.836,0,0,1,4.692 -8.47,6.046,6.046,0,0,1,3.778 -1.512 A 1.974,1.974,0,0,1,455.464,163.674 Z  m -5.007.6 a 12.525,12.525,0,0,0 -2.329,3.684,9.15,9.15,0,0,0,4.219 -2.33,3.55,3.55,0,0,0,1.228 -2.141.672.672,0,0,0 -.724 -.724 C 452.41,162.761,451.591,163.044,450.457,164.272 Z" transform="translate(-260.06 -152.115)" fill="#fff"/><path d="M 472.088,163.642 a 1.513,1.513,0,0,1 -1.543,1.48.6.6,0,0,1 -.63 -.567 c -.126 -.787 -.064 -1.732 -1.1 -1.732 -.692,0 -1.668.661 -2.645,2.11 a 13.542,13.542,0,0,0 -2.11,6.518 c -.063,1.574.6,2.047,1.354,2.047,1.04,0,2.2 -.819,3.4 -1.921 a .383.383,0,0,1,.409.535,7.065,7.065,0,0,1 -5.2,2.96 c -1.228,0 -2.361 -.913 -2.361 -3.338 a 12.156,12.156,0,0,1,4 -8.124,6.107,6.107,0,0,1,4.093 -1.827 C 471.333,161.784,472.088,162.666,472.088,163.642 Z" transform="translate(-265.791 -152.115)" fill="#fff"/></g><g transform="translate(214.593 131.27)"><path d="M 241.624,131.27 h 4.063 c 1.171,0,1.515.055,1.887.275.606.357.84.977.84,2.176,0,1.143 -.275,1.611 -1.171,1.928 v .028 c 1.116.262,1.46.8,1.46,2.19 a 2.435,2.435,0,0,1 -.881,2.245,3.731,3.731,0,0,1 -1.708.344 h -4.49 Z  m 3.76,4.049 a 2.635,2.635,0,0,0,1.46 -.22 c .4 -.22.537 -.578.537 -1.432,0 -.785 -.138 -1.157 -.523 -1.364 a 2.658,2.658,0,0,0 -1.2 -.138 h -3 v 3.154 Z  m -.523,4.242 a 5.816,5.816,0,0,0,2.231 -.179 c .413 -.179.579 -.565.579 -1.418,0 -.882 -.138 -1.295 -.482 -1.529 -.331 -.207 -.468 -.22 -1.86 -.22 h -2.672 v 3.347 Z" transform="translate(-241.624 -131.27)" fill="#fff"/><path d="M 255.455,132.33 h -.937 v -1.06 h .937 Z  m 0,8.126 h -.937 v -6.432 h .937 Z" transform="translate(-246.06 -131.27)" fill="#fff"/><path d="M 258.466,131.27 h .937 v 3.581 l .027.014 a .937.937,0,0,1,.551 -.661,3.818,3.818,0,0,1,1.543 -.275 c 1.887,0,2.493.827,2.493,3.388,0,2.438 -.647,3.236 -2.6,3.236 -1.088,0 -1.681 -.262 -2.038 -.9 h -.014 l .041.8 h -.937 Z  m .964,5.77 c 0,2.314.276,2.713,1.86,2.713,1.433,0,1.749 -.455,1.749 -2.506 s -.3 -2.52 -1.735 -2.52 C 259.815,134.727,259.43,135.208,259.43,137.04 Z" transform="translate(-247.418 -131.27)" fill="#fff"/><path d="M 270.133,140.456 H 269.2 V 131.27 h .936 Z" transform="translate(-251.11 -131.27)" fill="#fff"/><path d="M 274.081,132.33 h -.937 v -1.06 h .937 Z  m 0,8.126 h -.937 v -6.432 h .937 Z" transform="translate(-252.468 -131.27)" fill="#fff"/><path d="M 282.507,138.655 c 0,2.741 -.482,3.292 -2.851,3.292 s -2.837 -.551 -2.837 -3.36 c 0 -2.7.5 -3.264,2.851 -3.264 S 282.507,135.873,282.507,138.655 Z  m -4.435 -2.108 a 4.422,4.422,0,0,0 -.275,2.052 c 0,2.314.179,2.548,1.859,2.548.937,0,1.405 -.124,1.6 -.427 a 4.485,4.485,0,0,0,.276 -2.079,4.01,4.01,0,0,0 -.317 -2.163 c -.193 -.234 -.689 -.357 -1.543 -.357 C 278.72,136.121,278.265,136.245,278.073,136.547 Z" transform="translate(-253.733 -132.664)" fill="#fff"/><path d="M 290.958,135.445 h -2.479 v 3.938 c 0,.8.179,1.006.9,1.006.785,0,.964 -.234.964 -1.225,0 -.069,0 -.165 -.014 -.344 h .868 c .014.193.014.386.014.481,0,1.322 -.551,1.887 -1.845,1.887 -.978,0 -1.515 -.262 -1.722 -.827 a 2.618,2.618,0,0,1 -.1 -.978 v -3.938 h -.9 v -.785 h .9 v -1.543 h .937 v 1.543 h 2.479 Z" transform="translate(-257.114 -131.905)" fill="#fff"/><path d="M 295.795,134.823 h .028 c .248 -.634.812 -.9,2 -.9,1.24,0,1.873.275,2.2.937 a 3.143,3.143,0,0,1,.207,1.487 v 4.1 h -.937 v -4.1 c 0 -.716 -.028 -.882 -.165 -1.13 -.206 -.357 -.551 -.5 -1.322 -.5 -1.061,0 -1.625.234 -1.845.785 a 3.739,3.739,0,0,0 -.165,1.322 v 3.622 h -.937 V 131.27 h .937 Z" transform="translate(-259.939 -131.27)" fill="#fff"/><path d="M 311,139.908 a 2.158,2.158,0,0,1,.014.261 c 0,1.322 -.716,1.777 -2.768,1.777 -2.328,0 -2.865 -.634 -2.865 -3.333,0 -2.658.551 -3.292,2.892 -3.292,1.583,0,2.217.3,2.534,1.225 a 6.632,6.632,0,0,1,.193,2.259 h -4.627 c .013,2.038.248,2.341,1.859,2.341 s 1.818 -.138,1.8 -1.239 Z  m -.964 -1.832 a 3.58,3.58,0,0,0 -.138 -1.35 c -.165 -.481 -.579 -.647 -1.612 -.647 -1.6,0 -1.914.317 -1.9,2 Z" transform="translate(-263.558 -132.664)" fill="#fff"/><path d="M 317.152,136.613 h .426 l 2.286 -2.589 h 1.171 l -2.741,2.961,3.25,3.471 h -1.28 l -2.727 -3.1 h -.385 v 3.1 h -.937 V 131.27 h .937 Z" transform="translate(-267.287 -131.27)" fill="#fff"/><path d="M 331.59,139.492 h 4.724 v .964 h -5.757 V 131.27 h 1.032 Z" transform="translate(-272.221 -131.27)" fill="#fff"/><path d="M 341.615,132.33 h -.936 v -1.06 h .936 Z  m 0,8.126 h -.936 v -6.432 h .936 Z" transform="translate(-275.703 -131.27)" fill="#fff"/><path d="M 344.627,131.27 h .937 v 3.581 l .028.014 a .936.936,0,0,1,.55 -.661,3.818,3.818,0,0,1,1.543 -.275 c 1.887,0,2.493.827,2.493,3.388,0,2.438 -.647,3.236 -2.6,3.236 -1.088,0 -1.68 -.262 -2.038 -.9 h -.014 l .042.8 h -.937 Z  m .964,5.77 c 0,2.314.276,2.713,1.859,2.713,1.432,0,1.749 -.455,1.749 -2.506 s -.3 -2.52 -1.736 -2.52 C 345.977,134.727,345.591,135.208,345.591,137.04 Z" transform="translate(-277.062 -131.27)" fill="#fff"/><path d="M 360.7,139.908 a 2.154,2.154,0,0,1,.014.261 c 0,1.322 -.716,1.777 -2.768,1.777 -2.328,0 -2.865 -.634 -2.865 -3.333,0 -2.658.551 -3.292,2.892 -3.292,1.583,0,2.217.3,2.534,1.225 a 6.631,6.631,0,0,1,.193,2.259 h -4.627 c .013,2.038.248,2.341,1.859,2.341 s 1.818 -.138,1.8 -1.239 Z  m -.964 -1.832 a 3.58,3.58,0,0,0 -.138 -1.35 c -.165 -.481 -.579 -.647 -1.612 -.647 -1.6,0 -1.914.317 -1.9,2 Z" transform="translate(-280.66 -132.664)" fill="#fff"/><path d="M 367,135.39 l -.1.744.028.014 a 1.838,1.838,0,0,1,1.832 -.909 c 1.225,0,1.776.579,1.776,1.831 v .441 h -.923 v -.523 c 0 -.674 -.317 -.95 -1.061 -.95 a 1.42,1.42,0,0,0 -1.377.661,3.028,3.028,0,0,0 -.179,1.267 v 3.856 h -.937 V 135.39 Z" transform="translate(-284.438 -132.635)" fill="#fff"/><path d="M 379.982,139.908 a 2.263,2.263,0,0,1,.013.261 c 0,1.322 -.716,1.777 -2.768,1.777 -2.327,0 -2.865 -.634 -2.865 -3.333,0 -2.658.551 -3.292,2.892 -3.292,1.583,0,2.217.3,2.535,1.225 a 6.65,6.65,0,0,1,.193,2.259 h -4.628 c .013,2.038.248,2.341,1.859,2.341 s 1.818 -.138,1.8 -1.239 Z  m -.964 -1.832 a 3.581,3.581,0,0,0 -.138 -1.35 c -.165 -.481 -.579 -.647 -1.612 -.647 -1.6,0 -1.914.317 -1.9,2 Z" transform="translate(-287.292 -132.664)" fill="#fff"/><path d="M 390.476,139.523 c .013,1.9 -.565,2.424 -2.727,2.424 -2.286,0 -2.823 -.647 -2.823 -3.388,0 -2.534.62 -3.236,2.837 -3.236,1.391,0,2.148.317,2.438,1.019 a 2.771,2.771,0,0,1,.165,1.17 h -.937 v -.179 c 0 -.936 -.4 -1.212 -1.722 -1.212 -.812,0 -1.212.11 -1.46.371 a 4.164,4.164,0,0,0 -.344,2.163,3.9,3.9,0,0,0,.386,2.134 c .193.262.647.358,1.639.358,1.364,0,1.612 -.248,1.612 -1.625 Z" transform="translate(-290.926 -132.664)" fill="#fff"/></g><g transform="translate(273.34 165.373)"><path d="M 331.183,194.577 V 183.4 h 2.275 v 9.278 h 5.658 v 1.9 Z" transform="translate(-331.183 -183.308)" fill="#fff"/><path d="M 345.726,185.258 v -2 h 2.16 v 2 Z  m 0,9.271 v -8.163 h 2.16 v 8.163 Z" transform="translate(-336.186 -183.259)" fill="#fff"/><path d="M 352.253,194.528 V 183.259 h 2.16 v 4.059 a 3.057,3.057,0,0,1,2.367 -1.138,3.182,3.182,0,0,1,2.468,1.08,4.473,4.473,0,0,1,.976,3.1,4.724,4.724,0,0,1 -1,3.221,3.108,3.108,0,0,1 -2.418,1.13,2.982,2.982,0,0,1 -1.379 -.35,3.3,3.3,0,0,1 -1.173 -1.034 v 1.2 Z  m 2.144 -4.258 a 3.472,3.472,0,0,0,.4,1.875,1.709,1.709,0,0,0,1.491.861,1.529,1.529,0,0,0,1.219 -.611,3.01,3.01,0,0,0,.5 -1.925,3.193,3.193,0,0,0 -.507 -2.018,1.606,1.606,0,0,0 -1.3 -.619,1.627,1.627,0,0,0 -1.291.6 A 2.768,2.768,0,0,0,354.4,190.27 Z" transform="translate(-338.432 -183.259)" fill="#fff"/><path d="M 369.073,196.06 h -2.16 V 187.9 h 2.007 v 1.16 a 3.486,3.486,0,0,1,.926 -1.084,1.7,1.7,0,0,1,.934 -.262,2.738,2.738,0,0,1,1.422.408 L 371.533,190 a 1.892,1.892,0,0,0 -1.015 -.354,1.2,1.2,0,0,0 -.769.249,1.712,1.712,0,0,0 -.5.9,12.867,12.867,0,0,0 -.18,2.737 Z" transform="translate(-343.476 -184.791)" fill="#fff"/><path d="M 377.709,190.388 l -1.96 -.354 a 3.05,3.05,0,0,1,1.138 -1.753,4.163,4.163,0,0,1,2.4 -.569,5.164,5.164,0,0,1,2.152.342,2.149,2.149,0,0,1,1,.868,4.455,4.455,0,0,1,.288,1.933 l -.023,2.521 a 8.781,8.781,0,0,0,.1,1.587,4.648,4.648,0,0,0,.388,1.1 h -2.137 q -.085 -.215 -.207 -.638 c -.036 -.128 -.062 -.213 -.077 -.253 a 3.9,3.9,0,0,1 -1.184.807,3.384,3.384,0,0,1 -1.345.269,2.779,2.779,0,0,1 -1.987 -.684,2.272,2.272,0,0,1 -.727 -1.729,2.319,2.319,0,0,1,.331 -1.234,2.161,2.161,0,0,1,.926 -.83,7.228,7.228,0,0,1,1.718 -.5,11.814,11.814,0,0,0,2.1 -.531 v -.215 a 1.121,1.121,0,0,0 -.308 -.888,1.846,1.846,0,0,0 -1.161 -.265,1.543,1.543,0,0,0 -.9.227 A 1.577,1.577,0,0,0,377.709,190.388 Z  m 2.891,1.752 a 13.381,13.381,0,0,1 -1.315.331,3.958,3.958,0,0,0 -1.176.377.9.9,0,0,0 -.423.761,1.059,1.059,0,0,0,.338.784,1.181,1.181,0,0,0,.861.331,1.87,1.87,0,0,0,1.115 -.384,1.354,1.354,0,0,0,.515 -.715,4.26,4.26,0,0,0,.085 -1.053 Z" transform="translate(-346.439 -184.791)" fill="#fff"/><path d="M 391.761,196.06 H 389.6 V 187.9 h 2.006 v 1.16 a 3.494,3.494,0,0,1,.926 -1.084,1.7,1.7,0,0,1,.934 -.262,2.736,2.736,0,0,1,1.422.408 L 394.221,190 a 1.894,1.894,0,0,0 -1.015 -.354,1.2,1.2,0,0,0 -.769.249,1.7,1.7,0,0,0 -.5.9,12.82,12.82,0,0,0 -.18,2.737 Z" transform="translate(-351.281 -184.791)" fill="#fff"/><path d="M 397.522,187.994 h 2.3 l 1.953,5.8,1.906 -5.8 h 2.237 l -2.882,7.856 -.515,1.422 a 5.777,5.777,0,0,1 -.542,1.092,2.352,2.352,0,0,1 -.592.611,2.6,2.6,0,0,1 -.823.365,4.292,4.292,0,0,1 -1.1.131,5.764,5.764,0,0,1 -1.223 -.131 l -.192 -1.692 a 4.765,4.765,0,0,0,.915.1,1.356,1.356,0,0,0,1.114 -.442,3.077,3.077,0,0,0,.554 -1.126 Z" transform="translate(-354.007 -184.888)" fill="#fff"/><path d="M 419.214,194.577 V 183.4 h 2.276 v 9.278 h 5.658 v 1.9 Z" transform="translate(-361.469 -183.308)" fill="#fff"/><path d="M 433.757,185.258 v -2 h 2.16 v 2 Z  m 0,9.271 v -8.163 h 2.16 v 8.163 Z" transform="translate(-366.473 -183.259)" fill="#fff"/><path d="M 440.284,194.528 V 183.259 h 2.16 v 4.059 a 3.058,3.058,0,0,1,2.367 -1.138,3.182,3.182,0,0,1,2.468,1.08,4.473,4.473,0,0,1,.976,3.1,4.721,4.721,0,0,1 -1,3.221,3.107,3.107,0,0,1 -2.418,1.13,2.982,2.982,0,0,1 -1.379 -.35,3.294,3.294,0,0,1 -1.172 -1.034 v 1.2 Z  m 2.145 -4.258 a 3.472,3.472,0,0,0,.4,1.875,1.709,1.709,0,0,0,1.491.861,1.529,1.529,0,0,0,1.219 -.611,3.006,3.006,0,0,0,.5 -1.925,3.189,3.189,0,0,0 -.507 -2.018,1.605,1.605,0,0,0 -1.3 -.619,1.628,1.628,0,0,0 -1.292.6 A 2.768,2.768,0,0,0,442.429,190.27 Z" transform="translate(-368.719 -183.259)" fill="#fff"/><path d="M 459.482,193.462 l 2.152.361 a 3.532,3.532,0,0,1 -1.311,1.8,3.85,3.85,0,0,1 -2.241.619,3.654,3.654,0,0,1 -3.152 -1.391,4.675,4.675,0,0,1 -.807 -2.813,4.509,4.509,0,0,1,1.061 -3.179,3.494,3.494,0,0,1,2.683 -1.149,3.625,3.625,0,0,1,2.875,1.2,5.325,5.325,0,0,1,1.007,3.686 h -5.412 a 2.183,2.183,0,0,0,.523,1.495,1.634,1.634,0,0,0,1.245.534,1.319,1.319,0,0,0,.853 -.277 A 1.707,1.707,0,0,0,459.482,193.462 Z  m .123 -2.183 a 2.078,2.078,0,0,0 -.484 -1.426,1.559,1.559,0,0,0 -2.291.027,1.993,1.993,0,0,0 -.453,1.4 Z" transform="translate(-373.48 -184.791)" fill="#fff"/><path d="M 470.452,196.06 h -2.16 V 187.9 H 470.3 v 1.16 a 3.485,3.485,0,0,1,.926 -1.084,1.7,1.7,0,0,1,.933 -.262,2.736,2.736,0,0,1,1.422.408 L 472.912,190 a 1.892,1.892,0,0,0 -1.015 -.354,1.2,1.2,0,0,0 -.769.249,1.712,1.712,0,0,0 -.5.9,12.864,12.864,0,0,0 -.18,2.737 Z" transform="translate(-378.354 -184.791)" fill="#fff"/><path d="M 482.169,193.462 l 2.153.361 a 3.532,3.532,0,0,1 -1.311,1.8,3.851,3.851,0,0,1 -2.241.619,3.653,3.653,0,0,1 -3.152 -1.391,4.675,4.675,0,0,1 -.807 -2.813,4.509,4.509,0,0,1,1.061 -3.179,3.493,3.493,0,0,1,2.683 -1.149,3.624,3.624,0,0,1,2.874,1.2,5.322,5.322,0,0,1,1.007,3.686 h -5.412 a 2.19,2.19,0,0,0,.523,1.495,1.635,1.635,0,0,0,1.246.534,1.322,1.322,0,0,0,.853 -.277 A 1.706,1.706,0,0,0,482.169,193.462 Z  m .123 -2.183 a 2.081,2.081,0,0,0 -.484 -1.426,1.486,1.486,0,0,0 -1.122 -.488,1.5,1.5,0,0,0 -1.169.515,2,2,0,0,0 -.453,1.4 Z" transform="translate(-381.285 -184.791)" fill="#fff"/><path d="M 497.989,190.31 l -2.129.384 a 1.549,1.549,0,0,0 -.489 -.961,1.472,1.472,0,0,0 -.987 -.323,1.612,1.612,0,0,0 -1.288.558,2.853,2.853,0,0,0 -.481,1.864,3.305,3.305,0,0,0,.488,2.052,1.6,1.6,0,0,0,1.311.6,1.457,1.457,0,0,0,1.008 -.35,2.1,2.1,0,0,0,.553 -1.2 l 2.122.361 a 3.766,3.766,0,0,1 -1.269,2.207,3.928,3.928,0,0,1 -2.514.745,3.737,3.737,0,0,1 -2.855 -1.13,5.152,5.152,0,0,1,0 -6.277,3.8,3.8,0,0,1,2.891 -1.126,3.946,3.946,0,0,1,2.371.642 A 3.558,3.558,0,0,1,497.989,190.31 Z" transform="translate(-385.959 -184.791)" fill="#fff"/></g></g></svg>
